<?xml version="1.0" encoding="utf-8"?>
<!-- Generator: Adobe Illustrator 21.1.0, SVG Export Plug-In . SVG Version: 6.00 Build 0)  -->
<!DOCTYPE svg PUBLIC "-//W3C//DTD SVG 1.1//EN" "http://www.w3.org/Graphics/SVG/1.1/DTD/svg11.dtd" []>
	<!ENTITY ns_extend "http://ns.adobe.com/Extensibility/1.0/">
	<!ENTITY ns_ai "http://ns.adobe.com/AdobeIllustrator/10.0/">
	<!ENTITY ns_graphs "http://ns.adobe.com/Graphs/1.0/">
	<!ENTITY ns_vars "http://ns.adobe.com/Variables/1.0/">
	<!ENTITY ns_imrep "http://ns.adobe.com/ImageReplacement/1.0/">
	<!ENTITY ns_sfw "http://ns.adobe.com/SaveForWeb/1.0/">
	<!ENTITY ns_custom "http://ns.adobe.com/GenericCustomNamespace/1.0/">
	<!ENTITY ns_adobe_xpath "http://ns.adobe.com/XPath/1.0/">

<svg
	version="1.1"
	id="Warstwa_1"
	xmlns:x="&ns_extend;"
	xmlns:i="&ns_ai;"
	xmlns:graph="&ns_graphs;"
	xmlns="http://www.w3.org/2000/svg"
	xmlns:xlink="http://www.w3.org/1999/xlink"
	x="0px"
	y="0px"
	viewBox="0 0 1993 1080"
	style="enable-background:new 0 0 1993 1080;"
	xml:space="preserve">


	<path
		class="st1"
		d="M1278.4,416.2c-5.3,6.8-11,14.1-17.5,20.3c-9.2,8.8-19.9,15.4-33.1,15.5l0.5,0c-8,0.1-15.2-1.8-21.9-6.1
					c-10.4-6.7-19.5-15.4-26.7-25.5c-7.4-10.4-14.5-22.1-15.3-35.1c0,0-0.3-27.5-0.1-30.7c0.2-3.2,5.5-15.2,7.3-28.7
					c1.8-13.5,1.5-16.8,6.7-23.7c5.2-6.8,26.5-27.5,48.3-31.7c21.8-4.2,28.8,0.2,33.3,3c4.5,2.8,26.8,19.8,29.7,39.3
					c2.8,19.5,2.8,34.5,2.8,42.5S1292.3,398,1278.4,416.2"/>

	<path
		class="st2"
		d="M1278.1,415.9c-12.6,16.3-27.7,35.2-50.2,35.7c0,0.3,0,0.7,0,1c0.2,0,0.3,0,0.5,0c0.6-0.1,0.7-1,0-1
						c-4.9,0-9.8-0.7-14.4-2.4c-4.7-1.7-8.9-4.5-12.8-7.5c-7.8-5.8-14.7-12.9-20.5-20.8c-5.8-8.1-11.3-16.7-14.1-26.4
						c-1.4-4.8-1.6-9.5-1.7-14.4c-0.1-5.6-0.1-11.3-0.1-16.9c0-3.6-0.4-7.5,0.6-11c2.3-8.1,5.2-15.9,6.5-24.3
						c1.1-6.6,0.9-14.1,3.7-20.3c2.2-4.8,6.1-8.7,9.8-12.3c5.5-5.3,11.6-10.1,18-14.2c7.5-4.7,15.6-8.5,24.3-10.1
						c7.5-1.4,15.5-2.4,23-0.7c8.5,1.9,15.7,8.5,21.7,14.5c5.4,5.4,10.3,11.4,13.6,18.3c4,8.4,4.4,18.3,5.1,27.5
						c0.9,11.5,1.2,23.1,0.7,34.6c-0.7,14.1-2.5,29-8.5,41.9c-1.5,3.2-3.2,6.2-5.3,9c-0.4,0.5,0.5,1,0.9,0.5
						c9-12,11.9-27.9,13.3-42.5c1.1-11.3,1-22.7,0.5-34c-0.4-9.5-1-19.4-2.8-28.8c-1.5-7.5-5.6-14.3-10.4-20.2
						c-4.3-5.4-9.3-10.2-14.7-14.4c-2.7-2.1-5.5-4.2-8.7-5.6c-4.9-2.2-10.5-2.7-15.9-2.5c-8.9,0.3-17.8,2-25.9,5.6
						c-7.8,3.4-14.9,8.1-21.5,13.4c-5,4-10,8.5-14.1,13.5c-3.5,4.2-5.3,8.7-6.1,14.1c-0.7,4.5-1.1,9.1-1.8,13.5
						c-0.9,5-2.2,9.9-3.7,14.8c-1.4,4.6-3.3,8.9-3.3,13.7c0,5.6,0,11.1,0.1,16.7c0,3.8-0.1,7.7,0.1,11.5c0.4,9.4,4.6,18.5,9.4,26.4
						c5.1,8.4,11.1,16.3,18.2,23.1c6.7,6.4,14.5,12.7,23.3,15.7c4.4,1.5,8.9,2,13.5,2c0-0.3,0-0.7,0-1c-0.2,0-0.3,0-0.5,0
						c-0.6,0.1-0.7,1,0,1c22.8-0.5,38.1-19.4,50.9-36C1279.2,416.1,1278.5,415.4,1278.1,415.9L1278.1,415.9z"/>

	<path class="st2" d="M1291.5,358.9c-2.7,15.1-0.4,31.4-7,45.6c-0.3,0.6,0.6,1.1,0.9,0.5c6.6-14.4,4.3-30.6,7.1-45.9
						C1292.5,358.5,1291.6,358.3,1291.5,358.9L1291.5,358.9z"/>

	<path class="st2" d="M1284.3,405.1c-1.3,3.1-3,6.1-5,8.8c-0.4,0.5,0.5,1,0.9,0.5c2.1-2.8,3.8-5.8,5.1-9
						C1285.5,404.7,1284.5,404.5,1284.3,405.1L1284.3,405.1z"/>

	<path class="st2" d="M1279.4,413.9c-0.7,1-1.3,1.9-2,2.9c-0.4,0.5,0.5,1,0.9,0.5c0.7-1,1.3-1.9,2-2.9
						C1280.6,413.9,1279.7,413.4,1279.4,413.9L1279.4,413.9z"/>

	<path class="st2" d="M1320.5,487.7c11,0.9,21.9-0.7,32.1-4.7c0.6-0.2,0.3-1.2-0.3-1c-10.2,4-21,5.6-31.9,4.7
						C1319.8,486.7,1319.8,487.7,1320.5,487.7L1320.5,487.7z"/>

	<path class="st2" d="M1181.8,501.6c23.2,6.3,47.7,6.4,70.9,0.4c0.6-0.2,0.4-1.1-0.3-1c-23.1,6-47.4,5.8-70.4-0.4
						C1181.5,500.5,1181.2,501.4,1181.8,501.6L1181.8,501.6z"/>

	<path class="st2" d="M1177.4,526c27.1,3.8,54.6,2.9,81.3-2.8c0.6-0.1,0.4-1.1-0.3-1c-26.6,5.6-53.9,6.5-80.8,2.8
						C1177,525,1176.7,525.9,1177.4,526L1177.4,526z"/>

	<path class="st2" d="M1267.1,520.5c8.8-2.5,16.9-6.6,23.9-12.4c0.5-0.4-0.2-1.1-0.7-0.7c-6.9,5.6-14.9,9.7-23.5,12.1
						C1266.3,519.7,1266.5,520.7,1267.1,520.5L1267.1,520.5z"/>

	<path
		class="st3"
		d="M1184.8,495.8c4.5-5.3,5.8-12.8,5.3-19.8s-2.8-13.7-4.5-20.5c-2.1-8.2-3.4-16.5-4-24.9c0,0-5-13.3-5.5-15.2
					c-0.5-1.8,22.5,39.2,52.5,37.2c20-1,39-23,39-23s-2.7,14.3-2.8,25.2c-0.2,10.8-0.2,17.8-0.2,17.8s-8.7,20.3-8.8,27.2
					c-2.9,1.5-5.9,6.4-36.7,6c-29.5-0.4-39.5-6.2-39.5-6.2L1184.8,495.8z"/>

	<path
		class="st2"
		d="M1185.1,496.1c5.7-7,6.3-16.3,4.8-24.8c-0.9-5.4-2.6-10.7-3.9-16c-1.5-5.9-2.6-11.9-3.3-18
						c-0.4-2.9-0.3-5.8-1.3-8.6c-1-2.7-2-5.4-3-8.2c-0.4-1.2-0.9-2.4-1.3-3.6c-0.1-0.2-1.1-3.1-1.3-1.2c0,0.4,1.3,1.9,1.5,2.2
						c12.8,18.6,33.9,41,58.9,33.7c12.1-3.5,23.4-12.3,31.6-21.8c-0.3-0.2-0.6-0.3-0.8-0.5c-2.4,13.1-2.9,26.3-3,39.6
						c0,0.9,0,1.7,0,2.6c0,0.3-0.1,1.1,0,0.7c-0.3,1.2-1,2.4-1.5,3.6c-2.1,5.2-4.1,10.5-5.7,15.8c-0.7,2.3-1.3,4.6-1.6,6.9
						c-0.1,0.9,0.2,0.4-0.4,0.9c-0.2,0.2-0.6,0.4-0.8,0.5c-2,1.3-4.1,2.2-6.4,2.8c-5.3,1.5-10.8,1.9-16.3,2.1
						c-9.1,0.4-18.2,0.2-27.3-0.6c-6.3-0.6-12.7-1.5-18.8-3.3c-1.8-0.5-3.8-1.1-5.5-2.1c0,0.3,0,0.6,0,0.9c1.8-1.2,3.5-2.5,5.3-3.7
						c0.5-0.4,0-1.2-0.5-0.9c-1.8,1.2-3.5,2.5-5.3,3.7c-0.3,0.2-0.3,0.7,0,0.9c5.4,3.1,12.6,4,18.6,4.8c8.7,1.2,17.5,1.5,26.3,1.5
						c6.7,0,13.5-0.3,20.1-1.5c3-0.6,6.1-1.3,8.8-2.8c0.7-0.4,1.3-0.8,2-1.2c1.1-0.7,1.1-0.9,1.2-2.3c0.7-5.7,3.1-11.4,5.1-16.8
						c0.9-2.3,1.8-4.6,2.7-6.9c0.3-0.7,0.7-1.5,0.9-2.3c0.4-2.3,0-5,0-7.3c0-5,0-10.1,0.3-15.1c0.4-6.8,1.4-13.7,2.6-20.5
						c0.1-0.4-0.5-0.9-0.8-0.5c-3.8,4.4-8.3,8.3-12.9,11.8c-8.3,6.2-18.1,11.4-28.7,11.1c-17.4-0.4-31.8-14.2-42-27.1
						c-1.9-2.4-3.7-4.9-5.5-7.5c-0.4-0.5-1.3-2.5-2-2.6c-0.2,0-0.4,0-0.6,0.2c-0.4,0.7,0.6,2.3,0.8,2.9c0.8,2.4,1.7,4.7,2.6,7.1
						c0.7,1.7,1.5,3.5,2,5.3c0.9,3.6,0.8,7.7,1.4,11.4c1.4,9.4,4.4,18.3,6.3,27.6c1.8,8.8,1.9,18.8-4.1,26.1
						C1184,495.9,1184.7,496.6,1185.1,496.1z"/>

	<path
		class="st3"
		d="M1174.1,310.7c-0.5,2.2-0.9,4.3-1.2,6.5c-0.7,5.4-0.8,10.9-2.1,16.2c-1.6,6.1-4.8,11.6-6.1,17.7
					c-1.2,5.9-0.5,11.9-0.5,17.9c0.1,18.3-3.5,34-11.7,50.4l0.1,1.5c7.3,13.4,15.7,35.3,15.9,50.5c0.6,31.3-4.5,55.7-18,84
					c0,0,1.7,12.8,3,17c1.2,3.9,1.4,16.2,1.4,16.2c8.4,15.7,6.2,32.5-4.4,46.8c-15.3,20.4-17,28-40,31l0,4
					c5.9,7.2,10.5,15.4,13.7,24.1l0.3,0.9c2.1,10,5,18.9,4.5,29.1l-0.5-1.1c-3.3-8.7-6-15.8-11.1-23.5
					c-6.9-10.5-16.7-18.8-26.4-26.9l-0.1-1c-14.3-19.1-27.9-38.6-40.8-58.6c0,0-24.6-22.3-19.6-54.9c0.3-1.7,0.4-2.6,0.4-3l-0.2,0.1
					c2.5-15.1,8.4-33,22.8-38c2.2-0.8,4,0,9.1-1c11.8-2.4,24.8-6.2,31.9-15.9c9.1-12.4,18.9-44.7,20-58c3.2-40.3-3.9-75.6,8.8-114
					l16.9-42.1c12.3-34,40.9-61.7,75.3-73l5.9-1.2c9.7-0.5,19.6,1.9,27.9,6.9l2.7,1.4c10.8,1.7,20.9,7.5,28,15.9l0.5,1.3
					c11.9,1.3,19.9,12.7,24.9,23.6c14.3,31,17,66.1,16.2,100.2l-1.7,12.5c-1.8,20-1.4,40.1,1.1,60l-0.6,1c3,10,9.1,19,17.2,25.4
					c0,0,23,9,31,9s18.3,10.3,18.3,10.3s-6.3-3.3-10.8-1.4c-19,7.8-37,20-57.5,20.5c0,0-7.9,3.6-9.9,9.6c-1.8,5.5-4.5,12.2-4.9,13.3
					c0,0.1-0.1,0.2-0.1,0.3c-4,21.4,0.5,44.3,12.3,62.6l31.3,30.4c-20.9-10.5-37.3-28.1-50.5-47.4c-4.6-6.8-9-13.9-11.6-21.7
					c0,0,0.4-6.6-0.6-7.6c-0.5-0.5-9.5,6.1-16,15c-6.4,8.7-10.3,19.8-10.3,19.8c-3.1-10.6,1.3-22,7.6-31c6.3-9,14.4-16.7,20.2-26.1
					c6.6-10.6,9.9-23.2,9.5-35.7c0,0-9.9-15-10.9-20c-2,10-15.5,24-15.5,24c-7.9,10.3-8.5,25.6-1.6,36.6c0,0,3.9,12.1,2,10.8
					c-9-6.2-13.7-17.5-13.6-28.5s4.1-21.5,9.2-31.3c0,0-0.3-19.6,0.1-29.6c0.2-3.6,1.6-7,2.4-10.5l0.3-2.2c0,0,20.8-20.3,22.3-47.3
					s2.3-26.8,2.3-26.8s0.8-18.3,0-27.3s-1.8-20-9.8-32s-23-30-43-28s-33,7-44,18s-19,15-21,24"/>

	<path
		class="st2"
		d="M1173.6,310.6c-1.8,7.8-1.4,15.9-3.6,23.6c-2,7.2-5.9,13.6-6.5,21.2c-0.6,7.7,0.3,15.5-0.2,23.3
						c-0.5,7.6-1.9,15.2-4.1,22.5c-1.1,3.6-2.4,7.2-3.8,10.7c-0.8,1.8-1.5,3.6-2.4,5.3c-0.5,1-1,1.8-1.1,2.8c-0.1,2,1.7,4.1,2.5,5.9
						c1.6,3.2,3,6.5,4.4,9.8c5.2,12.7,9.1,25.8,9.1,39.6c0,14.6-1.3,29.1-4.7,43.3c-1.7,7-3.8,13.9-6.4,20.6
						c-1.4,3.7-2.9,7.4-4.6,11c-0.8,1.7-2.3,3.8-2.4,5.8c0,1.6,0.5,3.3,0.7,4.9c0.4,2.6,0.8,5.1,1.3,7.6c0.8,4.3,1.8,8.3,2.1,12.7
						c0.1,2.1,0.2,4.1,0.3,6.2c0.1,1.8,0.7,2.7,1.5,4.4c3.1,6.9,4.3,14.5,3.3,22c-1.8,13.6-11.1,24.4-19.1,35.1
						c-2.6,3.5-5.3,6.9-8.7,9.7c-3.6,2.9-7.8,4.7-12.1,5.8c-2.9,0.8-5.8,1.3-8.8,1.6c-0.3,0-0.5,0.2-0.5,0.5c0,1.1-0.2,2.4,0,3.6
						c0.2,1.7,1.8,2.9,2.8,4.3c3.4,4.7,6.4,9.8,8.8,15.1c2.3,5.2,3.5,10.5,4.7,16c1.4,6.3,2.5,12.6,2.3,19.1
						c0.3-0.1,0.6-0.2,0.9-0.3c-3.1-6.3-5-13-8.4-19.2c-3.8-6.9-8.6-13-14.2-18.6c-2.8-2.8-5.8-5.5-8.8-8.1
						c-1.4-1.3-2.9-2.5-4.4-3.7c-0.6-0.5-1.9-1.2-2.2-1.8c-0.1-0.3,0-0.7-0.1-0.9c-0.7-1.4-2-2.8-3-4.1c-1.4-1.8-2.7-3.7-4.1-5.5
						c-2.7-3.7-5.4-7.4-8-11.1c-5.1-7.2-10.1-14.4-15-21.7c-2.5-3.7-4.9-7.3-7.3-11c-1.2-1.8-2.3-4-3.7-5.6
						c-4.4-5-8.6-9.8-11.8-15.7c-3.2-5.8-5.6-12-7-18.5c-1.6-7.9-1-15.3,0-23.2c0-0.3-0.3-0.6-0.6-0.5c-0.1,0-0.2,0-0.2,0.1
						c0.2,0.2,0.4,0.4,0.6,0.6c1.4-8.4,3.6-17,7.8-24.5c3.7-6.5,10-13.3,17.9-13.6c8.4-0.3,17.5-3,25-6.6c7-3.3,12.2-8.3,16-15
						c7.5-13.4,12.3-29,15.5-44c1.7-8.2,2.1-16.5,2.3-24.9c0.3-10.8,0.1-21.6,0-32.4c-0.1-22,0.8-44.1,7.6-65.2
						c2.6-8.1,6.3-16,9.5-23.9c3.4-8.6,6.6-17.3,10.3-25.8c7.3-16.8,18.6-31.7,32.5-43.6c12.5-10.7,28-20.1,44.3-23.4
						c4.3-0.9,9.1-0.2,13.4,0.7c5.5,1.1,10.6,3.2,15.5,5.9c2.9,1.6,5.9,1.9,9.1,2.9c4.7,1.5,9.1,3.7,13.1,6.5
						c3.1,2.2,7.4,5.3,8.8,8.9c0.1,0.2,0.2,0.3,0.5,0.4c11,1.4,18.3,11.1,23,20.3c5.6,11,9.4,23,12.1,35.1c2.8,12.3,4.3,24.8,5,37.3
						c0.4,6.2,0.5,12.4,0.6,18.5c0,4.4,0.3,9-0.3,13.4c-2.9,20.7-3.4,41.4-1.5,62.2c0.2,1.7,0.3,3.3,0.5,5c0.1,1.3,0.6,2.9,0.3,4.1
						c-0.1,0.3-0.4,0.6-0.5,1c-0.2,0.9,1,3.1,1.3,4c1.8,4.7,4.3,9.1,7.4,13c2.4,3.1,5.5,7.1,9,8.9c1.7,0.9,3.7,1.4,5.5,2.1
						c7.5,2.7,15.4,5.8,23.4,6.8c2,0.2,4,0.2,5.9,0.9c2.4,0.8,4.6,2.1,6.7,3.5c2.6,1.7,5.1,3.7,7.3,5.9c0.2-0.3,0.4-0.5,0.6-0.8
						c-2.3-1.2-5-2-7.6-2c-4-0.1-8.2,2.6-11.8,4.2c-9.6,4.5-18.9,9.4-28.9,12.9c-5.1,1.8-10.5,3.1-15.9,3.7
						c-2.8,0.3-4.4,0.1-6.8,1.5c-2.7,1.6-5.2,3.7-6.9,6.3c-2.1,3.4-3,7.7-4.4,11.4c-1.3,3.4-2.1,6.3-2.6,9.9
						c-0.6,4.8-0.8,9.7-0.6,14.6c0.5,9.8,2.5,19.5,6.2,28.6c1.8,4.4,3.9,8.7,6.4,12.8c0.8,1.2,1.3,2,2.3,2.9c3.1,3,6.1,6,9.2,9
						c7,6.8,14,13.6,21.1,20.5c0.2-0.3,0.4-0.5,0.6-0.8c-21.4-10.9-38.1-29-51.3-48.7c-3.6-5.4-7-11-9.4-17.1
						c-0.7-1.8-1.1-2.9-1-4.8c0-1.6,0.2-3.5-0.3-5c-0.7-2-2.1-0.8-3.4,0.1c-3.7,2.6-7,5.8-10,9.2c-6.3,7.1-11,15.8-14.3,24.7
						c0.3,0,0.6,0,1,0c-5.8-21.1,13.8-37.1,24.7-52.3c5.6-7.8,9.5-16.6,11.4-26.1c0.4-2.1,0.7-4.2,0.9-6.3c0.2-2.4,0.7-5.2,0.3-7.6
						c-0.2-1.3-1.1-2.3-1.8-3.4c-1.8-2.9-3.6-5.8-5.3-8.7c-1.5-2.6-3.2-5.5-3.9-8.5c-0.1-0.5-0.9-0.5-1,0
						c-1.9,8.6-8.6,16.4-14.5,22.8c-6.1,6.6-8.3,16.5-7.1,25.2c0.4,2.8,1.1,5.5,2.1,8.1c0.7,1.8,1.8,3.4,2.5,5.1
						c1.1,2.8,1.7,5.9,2.3,8.8c0,0.1,0.2,0.8,0.1,1c0.1,0,0.1,0,0.2,0c-0.6-0.4-1.2-0.8-1.7-1.3c-1-0.8-1.9-1.7-2.8-2.6
						c-2.2-2.4-4-5.1-5.4-8c-2.8-5.9-3.8-12.4-3.4-18.8c0.5-7.5,2.8-14.8,5.8-21.7c1-2.2,2.8-4.6,3.3-6.9c0.2-0.7,0-1.7,0-2.4
						c-0.1-9-0.4-18.2,0.2-27.2c0.2-3.6,1.7-6.9,2.4-10.4c0.1-0.6,0.1-1.1,0.2-1.7c0.2-0.8-0.1-0.1,0.1-0.5c1-1.5,2.7-2.9,3.9-4.3
						c5.4-6.5,9.9-13.8,13.2-21.5c2.5-5.9,4.2-12,4.9-18.4c0.7-6.4,0.8-12.9,1.3-19.3c0.2-2.9,0.4-5.9,0.8-8.9
						c0.1-0.4,0.3-1,0.2-1.3c-0.1-0.5,0.3,0.2-0.5,0c0.3,0.1,0.6-0.1,0.6-0.5c0.4-10,0.7-20.1-0.3-30.1c-0.7-7-1.9-13.9-4.7-20.4
						c-2.7-6.3-6.7-12.1-11.1-17.4c-8.1-9.9-19.1-19.1-32.4-19.9c-7.4-0.4-15.5,1.2-22.6,3.2c-6.2,1.7-12.3,4.2-17.7,7.7
						c-6.9,4.5-12.5,10.8-18.6,16.3c-4.9,4.3-9.9,8.7-11.4,15.3c-0.1,0.6,0.8,0.9,1,0.3c1.4-5.9,5.7-10,10.1-13.8
						c5.3-4.8,10.3-10,15.9-14.5c11-8.7,25.2-12.2,38.9-13.4c13.8-1.2,25.6,7.4,34.2,17.3c4.2,4.8,8.2,10.2,11.1,15.9
						c3.5,6.8,5.3,14.2,6.1,21.8c1.1,10.5,0.8,21.2,0.4,31.8c0.2-0.2,0.4-0.3,0.6-0.5c-1.2-0.2-1.2,3.7-1.3,4.3
						c-1.2,10.7-0.6,21.7-2.9,32.2c-2.4,10.8-7.5,20.9-14.1,29.7c-1.8,2.4-3.7,4.7-5.8,6.9c-1.6,1.7-1.4,3.7-2.1,6.1
						c-2.9,10.4-2,21.6-1.9,32.4c0,1.4,0.1,2.8,0,4.2c-0.1,2.1-1.5,3.8-2.3,5.7c-3,6.4-5.3,13.1-6.3,20.1
						c-1.6,11.8,1.3,24.7,10.3,32.9c1.4,1.3,4.7,4.4,4.3,0.6c-0.3-3-1.3-6.3-2.4-9.1c-1-2.5-2.5-4.7-3.3-7.2
						c-1.1-3.3-1.6-6.9-1.6-10.4c0.1-6.6,2-13.9,6.4-19c6.1-7.1,13.4-14.6,15.4-24c-0.3,0-0.6,0-1,0c1.2,5.3,4.8,10.3,7.6,14.8
						c1,1.6,2.6,3.4,3.2,5.1c0.5,1.3,0.1,3.4,0,4.8c-0.1,2.8-0.4,5.5-0.9,8.3c-1.8,10.2-6.1,19.5-12.2,27.8
						c-5.9,7.9-13.1,15-18.3,23.4c-5.2,8.5-8.5,18.6-5.8,28.5c0.1,0.5,0.8,0.4,1,0c2.8-7.8,6.8-15.5,12.1-22
						c3-3.7,6.5-7.2,10.3-10.2c0.4-0.3,2.7-2.5,3.4-2.3c0.3,0.1,0.3,3.9,0.3,4.7c0,0.8-0.2,1.7-0.1,2.5c0.3,2.6,2.3,5.8,3.4,8.1
						c2.6,5.3,5.8,10.3,9.2,15.1c6.1,8.8,12.9,17.3,20.6,24.9c8.6,8.5,18.3,15.9,29.1,21.4c0.5,0.2,1-0.4,0.6-0.8
						c-5.5-5.3-10.9-10.6-16.4-15.9c-3.6-3.5-7.2-7-10.8-10.5c-2.6-2.5-4.4-4.4-6.3-7.5c-9.8-17-13.6-37.5-10.3-56.9
						c0.5-2.9,1.8-5.7,2.9-8.5c1.5-4.2,2.5-8.6,5.8-11.8c1.6-1.5,4-3.6,6.2-4.3c1.5-0.5,3.6-0.2,5.2-0.4c2.3-0.3,4.7-0.7,7-1.2
						c10.2-2.4,19.7-6.9,29.1-11.4c5.2-2.5,10.3-5,15.6-7.2c3.7-1.5,7.7-0.8,11.2,1c0.5,0.3,1-0.4,0.6-0.8c-2.8-2.8-6-5.3-9.4-7.3
						c-2.4-1.4-5.1-2.7-7.9-3c-2.1-0.2-4.1-0.3-6.1-0.7c-5.3-1.1-10.5-2.8-15.7-4.6c-3.3-1.1-7.1-2-10.1-3.7
						c-2.4-1.4-4.7-4.1-6.5-6.2c-2.8-3.1-5.2-6.6-7.1-10.4c-1-1.9-1.8-3.9-2.6-5.9c-0.2-0.6-0.7-1.6-0.8-2.2c0-0.5,0.3-0.7,0.5-1.2
						c0.4-1.6-0.4-4.1-0.6-5.7c-0.3-2.5-0.5-5-0.7-7.5c-1.3-16.3-1.6-33.3,0.6-49.6c0.5-3.8,1.3-7.6,1.4-11.4
						c0.2-8.8,0.1-17.6-0.3-26.4c-0.9-17.2-3.1-34.5-7.9-51c-2.3-7.8-5.1-15.6-8.7-23c-3-6.2-6.9-12.4-12.2-16.9
						c-2.2-1.9-4.8-3.4-7.5-4.4c-1.3-0.5-3.1-0.5-4.3-1.1c-0.3-0.1-0.1,0.2-0.4,0c-0.1-0.1-0.1-0.4-0.2-0.6
						c-0.1-0.2-0.2-0.5-0.3-0.7c-1.8-2.9-5.2-5.4-8-7.5c-2.9-2.2-6.1-4-9.4-5.4c-1.6-0.7-3.3-1.3-5-1.8c-1.9-0.6-4-0.7-5.8-1.3
						c-2.5-0.9-4.9-2.7-7.3-3.8c-7-3.2-15.3-5.2-23.1-4.5c-4.4,0.4-8.8,1.9-12.9,3.6c-6.5,2.6-12.9,5.8-18.8,9.5
						c-12.2,7.5-23,17.2-31.8,28.4c-8,10.1-13.9,21.3-18.6,33.3c-5.3,13.6-10.9,27.1-16.3,40.7c-5,12.5-6.8,26.7-7.8,40.1
						c-1.2,17.3-0.4,34.6-0.6,51.9c-0.1,8.3-0.1,16.8-1.1,25c-0.7,5.6-2,11.1-3.5,16.5c-3.3,12.2-7.4,24.8-13.8,35.8
						c-3.6,6.2-8.7,10.6-15.1,13.7c-6.7,3.2-14.7,5.6-22.1,6.3c-2.4,0.2-4.6,0-6.9,0.9c-2.5,1-4.8,2.4-6.9,4.2
						c-4.6,3.9-7.8,9.3-10.2,14.9c-2.5,6.1-4.1,12.5-5.1,19c-0.1,0.4,0.2,0.7,0.6,0.6c0.1,0,0.2,0,0.2-0.1c-0.2-0.2-0.4-0.3-0.6-0.5
						c-0.8,6.6-1.5,13-0.6,19.6c0.8,5.9,2.5,11.6,4.9,17.1c3.3,7.4,7.9,14.3,13.5,20.1c2.8,2.9,4.8,6.6,7,10
						c4.9,7.5,10,14.9,15.1,22.3s10.4,14.6,15.7,21.9c1.3,1.7,2.6,3.4,3.8,5.1c0.5,0.7,0.4,1.3,0.8,1.9c0.4,0.7,1.7,1.4,2.4,2
						c0.8,0.7,1.6,1.3,2.4,2c1.6,1.3,3.1,2.7,4.7,4.1c6.9,6.1,13.3,12.8,18.2,20.7c2.4,4,4.5,8.2,6.3,12.5c1.4,3.4,2.5,6.9,4.1,10.2
						c0.2,0.5,0.9,0.2,0.9-0.3c0.3-9.3-2.1-18.2-4.1-27.3c-1.7-7.7-6-15.2-10.4-21.6c-1-1.5-2.1-3-3.3-4.4c-0.9-1.1-0.7-2-0.7-3.4
						c0-1.5,0-0.8,1.5-1.1c1.7-0.3,3.4-0.5,5-0.9c5-1.1,9.8-2.8,13.8-5.9c3.8-2.8,6.7-6.5,9.5-10.3c4.4-5.8,9-11.7,12.8-17.9
						c4.1-6.6,6.6-14.1,6.9-21.9c0.1-3.9-0.3-7.8-1.3-11.5c-0.5-1.9-1.2-3.8-1.9-5.7c-0.5-1.3-1.6-2.8-1.9-4.1
						c-0.4-1.8-0.1-4-0.2-5.8c-0.1-2.7-0.3-5.4-0.7-8c-0.8-5-2.1-10-2.9-15.1c-0.2-1-0.4-2.1-0.4-3.1c-0.1-1.3,0.4-2,1-3.2
						c1.8-3.9,3.5-7.8,5-11.7c3.1-7.8,5.6-15.7,7.5-23.9c1.8-7.8,3-15.8,3.7-23.8c0.7-8.5,1.2-17.3,0.5-25.8
						c-1.3-15-7.1-30-13.7-43.4c-0.6-1.2-1.8-2.8-2-4.1c-0.3-1.7,1.2-3.5,1.9-5c1.7-3.8,3.3-7.7,4.6-11.7c2.6-8,4.2-16.4,4.8-24.8
						c0.3-4.4,0.4-8.9,0.3-13.3c-0.2-5-0.4-10,0.6-14.9c1-4.4,2.9-8.4,4.5-12.6c1.5-4,2.3-8.1,2.8-12.4c0.5-5.1,0.9-10.1,2.1-15
						C1174.7,310.2,1173.8,310,1173.6,310.6L1173.6,310.6z"/>

	<path
		class="st1"
		d="M1128.7,718.7c0.2-25.8-18.2-48.2-18.2-48.2v-4c0,0,7,0,15.8-3.8c8.8-3.8,19.2-17.2,28-32.3
					c8.8-15.2,8.2-29.8,0.2-41.8c2-9-5-30-4-33s13.2-34.5,13.2-34.5s15.8,8.5,54.7,7c38.8-1.5,42-6.3,42-6.3s8.2,10.8,9,8.7
					c0.8-2.2-2.3-10.3-2.3-10.3c6.5-0.5,23.7-12.2,23.7-12.2s-3.2,4.7-5.2,8.7s-25.2,33.8-25.2,33.8s-5.8,15.2-1.8,23.2
					c7-20,20-29,26-35c1,15,13,31,26,48s37,29,37,29l-32-31c0,0-3-7-9.2-20.8c-6.2-13.8-2.8-42.2-2.8-42.2s5-17,15-23
					c17-1,29-6,47.2-15.5c18.2-9.5,20.2-3.2,20.2-3.2c11.9,4.9,21.8,14.7,26.9,26.5c2.6,6,4,12.5,5.4,18.9
					c4.1,18.9,8.2,37.8,12.3,56.7c1.3,6,2.6,12.1,3.2,18.2c0.7,7.5,0.2,15,1.1,22.5c1.5,12.9,7,25.8,4.2,38.5l-1.1,0
					c0.7,21.4,1.4,43.2-3.9,64c-1.1,4.2-2.4,8.3-2.9,12.6c-0.7,5.2-0.3,10.4-1.1,15.6c-1,6.4-3.8,12.3-6.6,18.2
					c-3,6.2-6,12.4-10.5,17.5c-5.6,6.3-9.2,7.6-12.2,12.6l-0.1,0.1c-4.2,7.6-11.6,12.7-19.5,15.7c-17.8,6.6-36.7,2.2-55,0.5
					c-5.4-0.5-10.9-0.6-16.4-0.7l-0.7,2c-47.3,29.4-96.6,38.9-148.3,39.6l-22.3,0c-15.6-1.6-30.6-6.5-45.4-11.5
					c-8.3-2.8-16.7-5.6-25-8.3l-0.2-0.3c-9.1-6-12.8-8.3-15-19l0.3,0.1c-17-34.5-23.8-73.9-19.6-112.1l0.3,0c-4.3-2.9-2.6-8-4-13
					s-0.9-2.8-1-8l-0.4-0.7c-1.6-9.2-3.3-18.4-4.9-27.7c-2.7-16.1-3.9-31.9-1.5-48.1c2.1-14.7,7.9-52.1,8.8-53.6v2
					c-1,44,20,55,20,55s23,40,41,60"/>

	<path
		class="st2"
		d="M1129.2,718.7c0-16.8-7.1-33.5-17-46.9c-0.3-0.5-0.8-0.9-1.1-1.4c0-0.1-0.2-0.2-0.2-0.2
						c0.3,0.6,0.1-0.9,0.1-1.2c0-0.6,0.2-1.6,0-2.2c-0.1-0.3-0.8,0.1-0.1,0.2c1.3,0.1,2.8-0.2,4.1-0.4c4.8-0.8,9.9-2.2,14-4.7
						c3.7-2.2,6.8-5.2,9.6-8.4c3.8-4.2,7.2-8.8,10.3-13.5c3.4-5.1,6.8-10.3,9.1-15.9c4.1-10,4.4-21.1-0.3-30.9
						c-0.9-1.9-2.8-3.8-2.5-5.9c0.2-1.7,0.2-3.4,0.1-5.1c-0.3-4.1-1-8.2-1.9-12.2c-0.7-3.6-1.6-7.2-2.2-10.8
						c-0.3-1.9-0.4-3.2,0.3-4.9c4.1-11.1,8.4-22.1,12.7-33.1c-0.2,0.1-0.5,0.2-0.7,0.3c2.4,1.3,5.2,2.1,7.8,2.9
						c7.9,2.2,16.1,3.3,24.3,3.9c13.4,1,27,0.4,40.3-0.8c6.7-0.6,13.7-1.3,20.2-3.2c1.4-0.4,3.8-1,4.7-2.3c-0.3,0-0.6,0-0.9,0
						c1.2,1.6,2.5,3.2,3.8,4.7c1.1,1.2,3.1,4.3,5,4.5c3.3,0.3-0.7-9.8-1.2-11.2c-0.2,0.2-0.3,0.4-0.5,0.6c5-0.5,9.9-3.6,14.1-6.1
						c3.4-2,6.7-4,9.9-6.2c-0.2-0.2-0.5-0.5-0.7-0.7c-2.7,4-4.8,8.4-7.6,12.3c-3.2,4.6-6.6,9.1-10,13.5c-3.4,4.4-6.7,8.8-10.1,13.2
						c-1.5,1.9-2.7,3.3-3.4,5.6c-2.1,6.6-4.1,14.9-1.1,21.5c0.2,0.4,0.8,0.2,0.9-0.1c3-8.5,7.6-16.3,13.7-23
						c3.8-4.2,8.2-7.8,12.2-11.8c-0.3-0.1-0.6-0.2-0.9-0.4c1.3,16.6,13.1,31.2,22.8,44c4.8,6.3,9.8,12.1,15.9,17.2
						c4.9,4.1,10.2,7.8,15.6,11.2c2.9,1.8,5.9,3.6,9,5.1c0.5,0.2,1-0.4,0.6-0.8c-5-4.8-10-9.6-14.9-14.5c-3.6-3.5-7.2-7-10.8-10.5
						c-2-1.9-4.4-3.7-6.1-5.9c-1.2-1.5-2.3-5.1-3.2-7.3c-3-6.9-6.8-13.7-8.3-21.1c-2.1-10.8-2-22.8-0.6-33.7
						c0.3-2.3,1.7-5.4,2.8-7.7c1.2-2.7,2.7-5.4,4.4-7.8c1.8-2.6,4.6-6.5,7.7-7.5c2-0.6,4.4-0.5,6.5-0.7c1.8-0.2,3.6-0.5,5.4-0.9
						c3.9-0.8,7.8-1.9,11.5-3.2c8.4-2.9,16.3-7,24.2-11.1c3.6-1.8,7.3-3.6,11.3-4.5c1.8-0.4,4-0.8,5.9-0.2c0.8,0.3,1.2,0.7,1.8,1.3
						c1,0.9,3.3,1.8,4.7,2.5c7.5,4,13.9,10,18.5,17.2c5.3,8.3,7.3,17.8,9.4,27.2c4.4,20.3,9,40.6,13.2,61c1.1,5.4,1.9,10.8,2.2,16.2
						c0.3,5.2,0.2,10.4,0.6,15.6c0.8,9.8,4,19.2,5,28.9c0.2,2.4,0.3,4.7,0.2,7.1c-0.1,1.3-0.3,2.6-0.4,3.9c-0.1,1,0.2,1-0.9,1
						c-0.3,0-0.5,0.2-0.5,0.5c0.6,17.3,1.1,34.7-1.5,51.8c-1.3,8.3-4.3,16.4-5.4,24.7c-0.6,4.2-0.4,8.5-0.7,12.7
						c-0.4,4.3-1.5,8.5-3.1,12.5c-2.9,7.3-6.5,14.9-10.9,21.5c-2.3,3.3-5,6.2-7.9,8.9c-2,1.8-4.2,3.5-5.9,5.7
						c-1.5,1.8-2.5,3.9-4,5.8c-2.3,3.1-5.3,5.8-8.6,7.9c-7,4.6-15.2,6.9-23.5,7.5c-9.1,0.8-18.2-0.3-27.2-1.3
						c-9.7-1.2-19.2-2-29-2.2c-0.2,0-0.4,0.2-0.5,0.4c-0.1,0.4-0.2,1-0.5,1.4c-0.5,0.8-1.5,1.2-2.4,1.8c-2.4,1.4-4.8,2.8-7.2,4.2
						c-4.7,2.7-9.5,5.2-14.4,7.5c-9.7,4.7-19.7,8.7-29.9,12c-19.7,6.5-40.1,10.5-60.7,12.5c-14.8,1.5-29.5,1.8-44.4,1.8
						c-4.4,0-8.9,0.3-13.3-0.2c-11.5-1.4-22.6-4.5-33.6-8c-6.1-1.9-12.1-4-18.2-6c-3.1-1-6.2-2.1-9.3-3.1c-2.4-0.8-5.3-1.4-7.4-2.7
						c-3.4-2.1-7-4.4-9.8-7.4c-2.9-3.2-4.2-7.3-5.1-11.4c-0.2,0.2-0.5,0.4-0.7,0.6c0.1,0,0.2,0.1,0.3,0.1c0.5,0.2,0.9-0.2,0.7-0.7
						c-8.5-17.4-14.5-35.9-17.8-55c-1.7-9.6-2.6-19.4-2.9-29.2c-0.1-4.8-0.1-9.5,0.1-14.3c0.1-1.4,0.6-12.9,0.9-12.9
						c0.5,0,0.6-0.6,0.3-0.9c-2.9-2.2-2.9-5.5-3.2-8.8c-0.2-2.4-1-4.6-1.4-7c-0.3-1.6,0.1-3.2-0.2-4.8c-0.5-2.6-1.2-5.3-1.7-8
						c-2.6-14.4-5.5-28.8-6.2-43.4c-0.9-20.1,3.3-40.4,6.5-60.2c0.7-4.1,1.3-8.3,2.1-12.4c0.3-1.8,0.4-4.2,1.2-5.8
						c-0.3-0.1-0.6-0.2-0.9-0.3c0,18.6,1.6,40.8,16.3,54.4c1.1,1,2.3,1.9,3.6,2.8c0.3,0.2,0.5,0.4,0.3,0.1c0.4,0.4,0.7,1.1,0.9,1.6
						c4.7,8.1,9.6,16,14.7,23.8c7.8,12,15.9,23.9,25.4,34.6c0.4,0.5,1.1-0.2,0.7-0.7c-8.5-9.5-15.8-20.1-22.8-30.7
						c-5.5-8.4-10.9-17-16-25.6c-0.7-1.1-1.3-2.8-2.3-3.7c-0.6-0.6-1.5-1-2.2-1.5c-4.8-3.8-8.3-9.2-10.9-14.7
						c-5.9-12.7-6.7-26.6-6.7-40.4c0-0.5-0.7-0.7-0.9-0.3c-0.7,1.4-0.8,3.4-1.1,4.9c-0.7,3.6-1.2,7.1-1.8,10.7
						c-1.5,9.3-3,18.7-4.4,28c-1.7,11.3-3.1,22.4-2.7,33.8c0.6,14.7,3.4,29.2,6,43.7c0.6,3.3,1.5,6.7,1.9,10
						c0.2,1.6-0.1,3.1,0.3,4.8c0.8,3.3,1.1,6.4,1.6,9.7c0.3,2.6,1.3,4.6,3.4,6.1c0.1-0.3,0.2-0.6,0.3-0.9c-0.1,0-0.2,0-0.3,0
						c-0.3,0-0.5,0.2-0.5,0.5c-3.3,30,0.2,60.6,10,89.1c2.7,7.9,6,15.7,9.7,23.2c0.2-0.2,0.5-0.5,0.7-0.7c-0.1,0-0.2-0.1-0.3-0.1
						c-0.4-0.2-0.8,0.1-0.7,0.6c1.3,6.1,3.7,11,8.7,14.8c2.2,1.7,4.6,3.5,6.9,4.9c2.1,1.2,5.1,1.7,7.4,2.5c2.5,0.8,4.9,1.6,7.4,2.5
						c10.1,3.4,20.1,6.9,30.4,9.8c8.2,2.3,17.1,4.8,25.7,5.1c8.3,0.3,16.7,0.1,25.1-0.1c18.7-0.4,37.4-1.9,55.8-5.3
						c18.6-3.4,36.9-8.7,54.3-16c8.8-3.7,17.5-7.9,25.8-12.6c2.1-1.2,4.3-2.4,6.4-3.7c1.2-0.7,2.8-1.3,3.5-2.5
						c0.2-0.3,0.2-1.3,0.5-1.5c0.1-0.1,2.6,0.2,3,0.2c2.7,0.1,5.5,0.1,8.2,0.3c19.6,1.1,39.8,7,59,0.2c7.4-2.6,14.4-7.1,19-13.6
						c1.9-2.7,3.5-5.4,6-7.7c3-2.8,6.2-5.4,8.8-8.6c5.8-6.9,9.7-15.7,13.1-23.9c1.8-4.2,3.1-8.5,3.6-13.1c0.6-5.6,0.2-11.2,1.3-16.7
						c1-5,2.6-9.9,3.7-15c1-4.8,1.7-9.7,2.2-14.6c1-10.4,1.1-20.8,0.9-31.2c-0.1-2.5-0.1-5.1-0.2-7.6c0-1.1,0.1-2.7-0.1-3.8
						c-0.2-1-0.5-0.9,0.6-1c0.2,0,0.4-0.1,0.5-0.4c2-9.6-0.4-19-2.4-28.4c-1.1-5.3-2-10.6-2.3-16.1c-0.3-5.5-0.1-11.1-0.6-16.6
						c-1-10.6-3.8-21-6-31.3c-2.3-10.7-4.6-21.5-7-32.2c-2.2-10.1-3.7-20.8-7.9-30.4c-3.2-7.4-8.2-14-14.4-19.1
						c-3.2-2.6-6.6-4.8-10.3-6.6c-0.7-0.3-1.8-0.6-2.3-1c-0.2-0.1-0.2-0.4-0.4-0.6c-2-1.8-4.5-1.8-7.1-1.4
						c-8.3,1.3-15.8,6.5-23.3,10.1c-7.9,3.8-16.1,7.1-24.8,8.9c-2.3,0.5-4.7,0.8-7,1.1c-1.7,0.2-3.9,0-5.4,0.5
						c-2.6,0.9-5.1,4.2-6.7,6.3c-3.4,4.4-5.9,9.6-7.8,14.9c-0.7,2-0.9,3.9-1.1,6c-0.5,6-0.7,12-0.5,18.1c0.2,6.6,0.9,13.5,3.4,19.7
						c2.6,6.6,5.7,13,8.6,19.5c0.7,1.7,1.1,2.4,2.5,3.7c2.9,2.8,5.9,5.7,8.8,8.5c6.8,6.6,13.6,13.2,20.5,19.8
						c0.4,0.4,0.9,0.9,1.3,1.3c0.2-0.3,0.4-0.5,0.6-0.8c-7.6-3.8-14.9-8.7-21.6-13.9c-5.6-4.4-10.9-9.4-15.3-15.1
						c-5.7-7.4-11.4-14.8-16.3-22.7c-4.7-7.6-8.9-15.9-9.6-24.8c0-0.4-0.5-0.7-0.9-0.4c-4.3,4.3-9,8.1-13,12.7
						c-5.8,6.6-10.1,14.2-13.1,22.5c0.3,0,0.6-0.1,0.9-0.1c-2.9-6.3-0.8-14.5,1.2-20.7c0.7-2.2,1.6-3.1,3.2-5.2
						c6.6-8.6,13.3-17.2,19.6-26c3-4.2,5.3-8.9,8.2-13.2c0.3-0.4-0.3-1-0.7-0.7c-2.9,2-5.9,3.9-8.9,5.7c-4.3,2.5-9.5,6-14.5,6.5
						c-0.3,0-0.6,0.3-0.5,0.6c0.6,1.7,1.2,3.4,1.7,5.1c0.3,1.2,0.7,2.5,0.7,3.8c0,1.4-0.3,1.1-1.2,0.4c-2.7-2.2-4.9-5.2-7-8
						c-0.2-0.3-0.6-0.3-0.9,0c-0.4,0.5-2.6,1.3-3.6,1.7c-6.1,2-12.7,2.6-19.1,3.2c-21,2-43.3,2.8-63.9-2.5c-3.1-0.8-6.5-1.7-9.4-3.2
						c-0.3-0.2-0.6,0-0.7,0.3c-2.6,6.7-5.1,13.3-7.7,20c-1.5,4-3.1,8-4.5,11.9c-0.9,2.5-1.1,4.1-0.7,6.8c0.9,5.4,2.3,10.7,3.2,16.1
						c0.5,3,0.9,6,0.9,9.1c0,1.1-0.5,2.5-0.3,3.6c0.2,1.2,1.3,2.4,1.9,3.5c4.1,7.6,5.3,16.4,3.4,24.8c-2,9.1-7.3,17.1-12.5,24.7
						c-4.8,7-10.3,14.5-17.6,19.2c-5.2,3.4-12.5,5.4-18.7,5.5c-0.3,0-0.5,0.2-0.5,0.5c0,1.2-0.4,3.1,0.1,4.3
						c0.2,0.4,0.7,0.8,0.9,1.2c2.2,2.9,4.2,6,6,9.1c6.6,11.4,11.2,24.3,11.2,37.6C1128.2,719.3,1129.2,719.3,1129.2,718.7
						L1129.2,718.7z"/>

	<path class="st2" d="M1132.5,760c0.6,0,0.6-1,0-1C1131.9,759,1131.9,760,1132.5,760L1132.5,760z"/>

	<path class="st0" d="M1400.5,801.5c0,0,6,16,5,28s0,30,0,30l-245-1c0,0,82.3-3.7,115.2-21.8c32.8-18.2,33.8-19.2,33.8-19.2
				s43,1.3,53.5,3.2C1373.5,822.5,1398.5,812.5,1400.5,801.5z"/>
	<path
		class="st0"
		d="M1568.5,345.5c0,0-23,11-26,22s-29,72-29,72l13,16c0,0,9,9,10,24s-8,53-10,75s-3,89,5,113s19,50,25,51
				s54,1,54,1l145-3c0,0-7-39-3-47s-11-6-9-17s1-81,6-88s-7,9-13,3s-13-19,0-32s23-7,23-7s16,1,24,2s44,13,57,11s49-4,52,5
				s9,16,5,20s-14-11-19-8s12,26,13,38s2,34-6,41s-14,68-8,72s88,5,88,5l3-384h-394L1568.5,345.5z"/>

</svg>
