<?xml version="1.0" encoding="utf-8"?>
<!-- Generator: Adobe Illustrator 21.1.0, SVG Export Plug-In . SVG Version: 6.00 Build 0)  -->
<!DOCTYPE svg PUBLIC "-//W3C//DTD SVG 1.1//EN" "http://www.w3.org/Graphics/SVG/1.1/DTD/svg11.dtd" [
	<!ENTITY ns_extend "http://ns.adobe.com/Extensibility/1.0/">
	<!ENTITY ns_ai "http://ns.adobe.com/AdobeIllustrator/10.0/">
	<!ENTITY ns_graphs "http://ns.adobe.com/Graphs/1.0/">
	<!ENTITY ns_vars "http://ns.adobe.com/Variables/1.0/">
	<!ENTITY ns_imrep "http://ns.adobe.com/ImageReplacement/1.0/">
	<!ENTITY ns_sfw "http://ns.adobe.com/SaveForWeb/1.0/">
	<!ENTITY ns_custom "http://ns.adobe.com/GenericCustomNamespace/1.0/">
	<!ENTITY ns_adobe_xpath "http://ns.adobe.com/XPath/1.0/">
]>
<svg version="1.1" id="Warstwa_1" xmlns:x="&ns_extend;" xmlns:i="&ns_ai;" xmlns:graph="&ns_graphs;"
	 xmlns="http://www.w3.org/2000/svg" xmlns:xlink="http://www.w3.org/1999/xlink" x="0px" y="0px" viewBox="0 0 2004 841.9"
	 style="enable-background:new 0 0 2004 841.9;" xml:space="preserve">
<style type="text/css">
	.st0{fill:#FFFFFF;stroke:#ED2224;stroke-miterlimit:10;}
	.st1{fill:none;stroke:#ED2224;stroke-miterlimit:10;}
</style>

		<path class="st0" d="M33.5,85.5l918,2h6c0,0,11,35,35,33s27-26,27-26s1-14,25-9s912,0,912,0l-4,609H32.5L33.5,85.5z"/>
		<path class="st0" d="M783.5,111.5c0,0-3-2-4-3s-13.5-3.5-16-1c-3,3-4,27-4,31s-1-10-2-14s0-16,4-23s16-12,25-11s14,3,17,6
			s8,5,8,10s1,19,2,22s-4,3-4,6s0,10-2,11c-1-1,1-9-2-14s-2-6-2-6s0-6,0-9s0-4-3-4s-10,0-10-4C788.5,111.5,784.5,111.5,783.5,111.5z
			"/>
		<path class="st0" d="M756.5,126.5c0,0-2-1-2,0s0,8,1,10s2,8,1,10s3,2,3,2s1,16,5,19s6,2,8,6s5,4,8,5s19-5,22-13s5-10,5-15
			c0,0,3,2,5,0s6-21,4-22s-3,0-3,0s-1,2.5-2.5,3.8s-1.5,13.3-3.5,13.3s1-8-1.5-13s-3-8.5-2.8-10.3s2.3-8.8-0.3-9.3
			s-12.5-0.5-12.5-4.5c-2,3-5,4-7,3s-4-3-4-3s-14.2-3.6-16-1c-2,3-4,31-4,31S759.5,128.5,756.5,126.5z"/>
		<path class="st0" d="M807.5,151.4l-1,21.1c0,0-17,23-27,26c-8,1-13-22-13-22l-0.4-8.1l4.6,2.8c0,0,3.8,6.1,9.3,7.3
			s18.1-5.6,20.5-8.9S808.5,155.3,807.5,151.4z"/>
		<path class="st0" d="M807.3,165.5c0,0,1.3,1,4.3,5s3,9,3,9s-3,15-21,30c-8-2-13-9-13-9h-5l-9,9c0,0-3-14-3-21s0-12,1-13s1-1,1-1
			s5,24,13,24s27-24.8,27-24.8l1-1.3L807.3,165.5z"/>
		<path class="st0" d="M800.5,223.5c7,7,10,45,10,45s5,3,7,3c0,4,1,12,1,12l-4,1c0,0,1,8,8,18s13,16,13,16l11-3l2-2l3-3l5-2
			c0,0,1-2,1-4s-2-4-2-4v-9c0,0,1-1,2-2s2-17,3-20s3-4,3-4v-23c0,0,1-4,1-6s-4-4-4-4s1-3-1-7s-2-19-3-23s-8-10-8-10l-6-1
			c0,0-3-3-3-5s-6,0-6,0s-2,1-3-2s-15-6-15-6c-4,26-16,43-16,43L800.5,223.5z"/>
		<path class="st0" d="M762.5,180.5c0,0-5,3-7,5s-2-2-2-2l-15,4v1h-6l-3,4c0,0-14,11-15,15s-8,19-10,24s-4,2-4,2s1,5,0,7s-4,9-5,9
			s-2,2-2,2l-1,4l-5,9v4c0,0-4,1-4,4s0,23,0,23s2,5,5,7s8,4,8,4l12-1c0,0-14-3-15-4s1-8,2-8s4-9,5-12s4-11,7-11s7-1,7-1s-2-6-1-7
			s3,1,3,1s-4-7-1-7s8,5,8,5s-2-5,0-5s10,6,10,6l1-12l2-1c0,0,5-22,4-24s2-1,2-1s7-6,10-5s5-23,6-25s5-6,5-6L762.5,180.5z"/>
		<path class="st0" d="M762.5,193.5c0,0-1,15-2,16s-3,11-3,11l-4-1c0,0,3-14,3.5-18.5s3.5-9.8,3.5-9.8l3-2.8L762.5,193.5z"/>
		<path class="st0" d="M798.3,205c0,0-1.8,13.5-3.8,14.5s5,2,5,2s12.5-21,12.8-27.5s2.3-13.5,2.3-13.5S805,202.5,798.3,205z"/>
		<path class="st0" d="M758.5,220.5h34c0,0,6-1,7,1s10,16,11,47c-5,0-4-2-7-2s-15,6-18,7s-20-3-23-1s-16,2-16,2l-13-12l1-12l2-1
			c0,0,6-24,5-24s-1,0-1,0l2-1c0,0,5.5-4.5,7.8-4.8S758.5,220.5,758.5,220.5z"/>
		<path class="st0" d="M725.5,307.5c0,0,13,1,15-2c0,0,6,3,9,3s5-1,5-1s9,6,24,8s32,7,50,1c3,4,6,14,9,16s4,9,4,9l2,21c0,0-1,3-2,6
			s4,34,2,39s-5,55-4,62s1,12,1,12s-40,0-62-2c-19-3-14-3-22-5s-26,0-36-2s-13-4-13-4s4-80,8-97s9-33,9-33S727.5,310.5,725.5,307.5z
			"/>
		<path class="st0" d="M714.5,306.5c0,0,18,3,40-6s19-7,19-7s9,4,16,2s19-8,19-8l5-1l1-2l4-1l-1-12l-7-3c0,0-4-1-5.5-1.5
			s-15.5,5.5-19.5,6.5s-42,2-48,1s-22-5-22-5l-8,1c0,0-5.5,2.5-6.3,9.3s-5.8,13.8-5.8,13.8s-3,6-2,8S714.5,306.5,714.5,306.5z"/>
		<path class="st0" d="M832.5,315.5c0,0-9.5,4-33.3,3.5s-44.8-11.5-44.8-11.5s-3,2-5,1s-9-3-9-3l33-12c0,0,10,5,16,2s17-7,20-8.5
			s4-0.5,4-0.5l1-2C814.5,284.5,828.5,312.5,832.5,315.5z"/>
		<path class="st0" d="M714.5,269.5h2c0,0,10.5,3.5,14.8,4.3s15.3,0.8,15.3,0.8s-19-18-23-18s0,5,0,5s-6-5-8-5s2,8,2,8l-4-2
			L714.5,269.5z"/>
		<path class="st0" d="M782,480.3l28.3,1l20.7,0.3c0,0,3.5,37.8,3.5,40.8s-2,7-1,11s4,21,3,28s3,15,2,19s-2,16-2,20s2,33,2,37
			s-3,19-8,25c-7-3-19-2-19-2s-18,6-17,9c-4,0-5-21-5-21s-8-16-7-30s13-53,13-53v-2l-1-16l-1-2v-5l-4-7l-2-14c0,0-1-5-2-12
			S782,480.3,782,480.3z"/>
		<path class="st0" d="M727.7,473.7c0,0,1.8,6.8,4.8,12.8c-1,7,0,20,2,22s4,8,4,8s-1,11,0,11s1,5,1,5s0,13,0,15s3,14,3,16
			s-2,36-2,36l-2,8c0,0-1,9,9,10c-2,6-5,16-5,16l2,1c0,0,9,10,18,9s23,0,22-4s-3-15-2-21s3-19,3-19s-2-52-3-60s-2-17-2-17s3,1,1-3
			s-4-17-4-17l5-14v-8c0,0-21.7-3.3-22.8-5.2c-1.2-1.8-11.7-2-11.7-2L727.7,473.7z"/>
		<path class="st0" d="M797.5,665.5c0,0,1,9-1,14s-3,11-1,12s4,1,4,1h33c0,0,0-8,0-14s-6-10-6-10l1.2-6.2c0,0-12.5-4.5-22.3,0.3
			C795.5,667.5,797.5,665.5,797.5,665.5z"/>
		<path class="st0" d="M746.3,636.7c0,0-24.8,8.8-27.8,11.8s-7,10-6,13s1,8,12,8s34-12,41-13s18-3,20-3s4-5,4-5l-4-8c0,0-11,2-16,1
			S749.2,641.8,746.3,636.7z"/>
		<path class="st0" d="M845.5,316.5c0,0-1,20-3,25c-1-8-5-9-5-9l-9-16l4-1c0,0,1,4,3,3S845.5,316.5,845.5,316.5z"/>
		<polygon class="st1" points="871.5,285.5 1066.5,285.5 1077.5,692.5 1059.5,692.5 1056.5,649.5 885.5,650.5 885.5,693.5
			868.5,693.5 		"/>
		<polygon class="st1" points="888.5,302.5 1052.5,301.5 1059.5,631.5 886.5,631.5 		"/>
</svg>
